<?xml version="1.0" encoding="utf-8"?>
<!-- Generator: Adobe Illustrator 25.2.3, SVG Export Plug-In . SVG Version: 6.00 Build 0)  -->
<svg version="1.1" id="Layer_1" xmlns="http://www.w3.org/2000/svg" xmlns:xlink="http://www.w3.org/1999/xlink" x="0px" y="0px"
	 viewBox="0 0 750 269.5" style="enable-background:new 0 0 750 269.5;" xml:space="preserve">
<style type="text/css">
	.st0{fill:none;}
</style>
<path class="st0" d="M-0.2,0h749.8c0,0,0.1,0,0.1,0.1v269.4c0,0,0,0.1-0.1,0.1H-0.2c0,0-0.1,0-0.1-0.1L-0.2,0C-0.3,0-0.3,0-0.2,0z"
	/>
<g>
	<path d="M542.5,174c0,3,2.5,5.5,5.5,5.5h106.7c3,0,5.5-2.5,5.5-5.5c0-2.3-1.3-4.2-3.4-5.1l-119.1-47.6c-10.7-4.3-17.6-14.5-17.6-26
		c0-15.4,12.5-28,28-28h106.7c15.4,0,28,12.5,28,28c0,6.2-5,11.2-11.2,11.2c-6.2,0-11.2-5-11.2-11.2c0-3-2.5-5.5-5.5-5.5H548
		c-3,0-5.5,2.5-5.5,5.5c0,2.3,1.3,4.2,3.4,5.1l119.1,47.6c10.7,4.3,17.6,14.5,17.6,26c0,15.4-12.5,28-28,28H548
		c-15.4,0-28-12.5-28-28c0-6.2,5-11.2,11.2-11.2C537.5,162.8,542.5,167.8,542.5,174z"/>
	<path d="M95.3,89.9H202c3,0,5.5,2.4,5.5,5.5V118c0,3-2.4,5.5-5.5,5.5l-74.4,0c-5.4,0-10.2,3.6-11.3,8.9c-1.5,7.2,4,13.6,11,13.6
		H202c15.4,0,28-12.5,28-28V95.3c0-15.4-12.5-28-28-28H78.6c-6.2,0-11.2,5-11.2,11.2l0,112c0,5.4,3.6,10.2,8.9,11.3
		c7.2,1.5,13.6-4,13.6-11V95.3C89.8,92.3,92.3,89.9,95.3,89.9z"/>
	<path d="M218.7,202c-2.9,0-5.8-1.1-7.9-3.3l-56.1-56.1c-4.4-4.4-4.4-11.5,0-15.9c4.4-4.4,11.5-4.4,15.9,0l56.1,56.1
		c4.4,4.4,4.4,11.5,0,15.9C224.5,200.9,221.6,202,218.7,202z"/>
	<path d="M256,89.9h36.9c6.2,0,11.2-5,11.2-11.2c0-6.2-5-11.2-11.2-11.2H256c-6.2,0-11.2,5-11.2,11.2
		C244.7,84.8,249.8,89.9,256,89.9z"/>
	<path d="M325.7,202c6.2,0,11.2-5,11.2-11.2V95.3c0-3,2.5-5.5,5.5-5.5h53.7c6.2,0,11.2-5,11.2-11.2c0-6.2-5-11.2-11.2-11.2h-53.7
		c-15.4,0-28,12.5-28,28v95.4C314.5,196.9,319.5,202,325.7,202z"/>
	<path d="M492.1,202h-11.3c-15.4,0-28-12.5-28-28V95.3c0-3-2.5-5.5-5.5-5.5H436c-6.2,0-11.2-5-11.2-11.2c0-6.2,5-11.2,11.2-11.2
		h11.3c15.4,0,28,12.5,28,28V174c0,3,2.5,5.5,5.5,5.5h11.3c6.2,0,11.2,5,11.2,11.2S498.3,202,492.1,202z"/>
</g>
</svg>
